# xmcd
#
# Track frame offsets: 
#        180
#        26858
#        46318
#        64614
#        90523
#        113303
#        136419
#        158647
#        177963
#        199317
#
# Disc length: 2924 seconds
#
# Revision: 4
# Processed by: cddbd v1.5.2PL0 Copyright (c) Steve Scherf et al.
# Submitted via: ExactAudioCopy v1.0b4
#
DISCID=7c0b6a0a
DTITLE=Mike Henderson and The Bluebloods - First Blood
DYEAR=1900
DGENRE=
TTITLE0=When I Get Drunk
TTITLE1=So Sad To Be Lonesome
TTITLE2=Hip Shakin'
TTITLE3=Pony Blues
TTITLE4=Bloody Murder
TTITLE5=Pay Bo Diddley
TTITLE6=When The Welfare Turns Its Back On You
TTITLE7=Give Me Back My Wig
TTITLE8=How Many More Years
TTITLE9=Mean Mistreater
EXTD=
EXTT0=
EXTT1=
EXTT2=
EXTT3=
EXTT4=
EXTT5=
EXTT6=
EXTT7=
EXTT8=
EXTT9=
PLAYORDER=
